<svg id="SvgjsSvg1012" width="288" height="288" xmlns="http://www.w3.org/2000/svg" version="1.1" xmlns:xlink="http://www.w3.org/1999/xlink" xmlns:svgjs="http://svgjs.com/svgjs"><defs id="SvgjsDefs1013"></defs><g id="SvgjsG1014"><svg xmlns="http://www.w3.org/2000/svg" width="288" height="288" viewBox="0 0 48 48"><g transform="translate(-590.22 -135.376)" fill="#e0c45c" class="color000 svgShape"><circle cx="614.22" cy="159.376" r="24" fill="#cb3b3b" class="color1d67b1 svgShape"></circle><path style="line-height:normal;text-indent:0;text-align:start;text-decoration-line:none;text-decoration-style:solid;text-decoration-color:#000;text-transform:none;block-progression:tb;isolation:auto;mix-blend-mode:normal" fill="#85203b" d="M 29.642578 10.863281 A 0.50005 0.50005 0 0 0 29.607422 10.867188 C 27.724152 11.049537 26.181677 12.347981 25.623047 14.087891 C 25.443242 14.040241 25.260744 13.999318 25.074219 13.970703 C 24.887694 13.942088 24.697138 13.925781 24.501953 13.925781 C 24.330515 13.925781 24.162728 13.940608 23.998047 13.962891 L 22.248047 12.212891 C 22.230119 12.194963 22.209626 12.179746 22.191406 12.162109 C 22.107883 12.081241 22.017193 12.008122 21.927734 11.933594 C 21.85792 11.875449 21.790036 11.815801 21.716797 11.761719 C 21.613617 11.68548 21.504116 11.61853 21.394531 11.550781 C 21.332297 11.512308 21.273167 11.469203 21.208984 11.433594 C 21.0757 11.359654 20.936045 11.295363 20.794922 11.234375 C 20.743463 11.212132 20.695011 11.184511 20.642578 11.164062 C 20.446644 11.087663 20.245416 11.024626 20.037109 10.974609 A 0.50005 0.50005 0 0 0 19.888672 10.958984 A 0.50005 0.50005 0 0 0 19.802734 11.945312 L 22.365234 14.507812 C 21.043279 15.253169 20.141299 16.648225 20.140625 18.275391 C 20.141225 18.487121 20.163113 18.698113 20.195312 18.908203 L 20.947266 19.660156 C 19.943094 20.144631 19.058398 20.82692 18.335938 21.658203 L 14.291016 17.613281 A 0.50005 0.50005 0 0 0 13.847656 17.335938 A 0.50005 0.50005 0 0 0 13.404297 18.072266 C 13.53941 18.332993 13.68524 18.586407 13.837891 18.835938 C 13.88903 18.919518 13.944996 18.999765 13.998047 19.082031 C 14.091015 19.226216 14.186435 19.36779 14.285156 19.507812 C 14.547601 19.88009 14.827753 20.237313 15.128906 20.578125 C 15.18238 20.638645 15.238327 20.696386 15.292969 20.755859 C 15.412167 20.885603 15.527709 21.019896 15.652344 21.144531 L 17.435547 22.927734 C 16.98939 23.700968 16.658985 24.549218 16.488281 25.457031 C 16.426004 25.788224 16.384236 26.126383 16.363281 26.470703 L 12.507812 26.470703 A 0.50005 0.50005 0 1 0 12.507812 27.470703 L 17.583984 32.546875 C 15.825897 33.713661 14.382719 35.309215 13.404297 37.197266 A 0.50005 0.50005 0 0 0 13.847656 37.933594 A 0.50005 0.50005 0 0 0 14.080078 37.873047 L 24.199219 47.992188 A 23.999998 23.999998 0 0 0 47.519531 28.779297 L 30.158203 11.417969 A 0.50005 0.50005 0 0 0 29.642578 10.863281 z M 19.03125 23.105469 L 19.039062 23.113281 C 19.025989 23.139396 18.998609 23.15754 18.990234 23.185547 C 18.998829 23.156837 19.017716 23.132179 19.03125 23.105469 z M 20.246094 24.894531 C 20.241661 24.896531 20.238699 24.900231 20.234375 24.902344 L 20.230469 24.898438 C 20.234907 24.896262 20.241541 24.896588 20.246094 24.894531 z " color="#000" font-family="sans-serif" font-weight="400" transform="translate(590.22 135.376)" class="color154082 svgShape"></path><path style="line-height:normal;text-indent:0;text-align:start;text-decoration-line:none;text-decoration-style:solid;text-decoration-color:#000;text-transform:none;block-progression:tb;isolation:auto;mix-blend-mode:normal" fill="#fff98c" d="m 619.86195,146.23848 a 0.50005,0.50005 0 0 0 -0.0352,0.004 c -1.88327,0.18235 -3.42574,1.48079 -3.98437,3.2207 -0.35961,-0.0953 -0.73072,-0.16211 -1.12109,-0.16211 -0.38679,0 -0.75469,0.0646 -1.11133,0.1582 -0.49161,-1.53379 -1.75445,-2.72542 -3.35352,-3.10937 a 0.50005,0.50005 0 0 0 -0.14843,-0.0156 0.50005,0.50005 0 0 0 -0.0859,0.98633 c 1.28098,0.30758 2.28111,1.27184 2.65234,2.50782 -1.37237,0.7314 -2.31376,2.15739 -2.31445,3.82226 6e-4,0.21173 0.0225,0.42272 0.0547,0.63281 1.28499,-0.68541 2.74988,-1.07617 4.30664,-1.07617 1.55677,0 3.02165,0.39076 4.30664,1.07617 0.0319,-0.21031 0.0537,-0.42191 0.0547,-0.63476 -10e-4,-1.66361 -0.94125,-3.08901 -2.3125,-3.82031 0.41951,-1.40108 1.64375,-2.44573 3.15234,-2.5918 a 0.50005,0.50005 0 0 0 -0.0606,-0.99805 z m -7.39062,4.98047 c 0.27614,0 0.5,0.22386 0.5,0.5 0,0.27614 -0.22386,0.5 -0.5,0.5 -0.27614,0 -0.5,-0.22386 -0.5,-0.5 0,-0.27614 0.22386,-0.5 0.5,-0.5 z m 5,0 c 0.27614,0 0.5,0.22386 0.5,0.5 0,0.27614 -0.22386,0.5 -0.5,0.5 -0.27614,0 -0.5,-0.22386 -0.5,-0.5 0,-0.27614 0.22386,-0.5 0.5,-0.5 z m 7.91797,1.42578 a 0.50005,0.50005 0 0 0 -0.42579,0.2793 c -0.89548,1.75471 -2.23186,3.24527 -3.87304,4.33594 -1.3977,-1.7348 -3.4941,-2.8841 -5.86914,-3.02735 l 0,16.22852 c 1.9597,-0.11825 3.72736,-0.92756 5.07226,-2.17969 1.99819,1.10641 3.62982,2.77638 4.66992,4.81445 a 0.50005,0.50005 0 0 0 0.42579,0.2793 0.50005,0.50005 0 0 0 0.46484,-0.73242 c -1.09195,-2.13968 -2.78156,-3.90902 -4.85156,-5.11133 1.07152,-1.28635 1.74887,-2.9061 1.85742,-4.68555 l 3.85351,0 a 0.50005,0.50005 0 1 0 0,-1 l -3.85351,0 c -0.0839,-1.37881 -0.50684,-2.66284 -1.19336,-3.76953 1.77367,-1.18419 3.21787,-2.79727 4.1875,-4.69726 a 0.50005,0.50005 0 0 0 -0.46484,-0.73438 z m -21.32227,0.0664 a 0.50005,0.50005 0 0 0 -0.44336,0.73633 c 0.96927,1.87039 2.39943,3.46273 4.15234,4.63281 -0.68518,1.10585 -1.10954,2.38834 -1.19336,3.76562 l -3.85546,0 a 0.50005,0.50005 0 1 0 0,1 l 3.85546,0 c 0.1084,1.77697 0.78458,3.3942 1.85352,4.67969 -2.04639,1.18856 -3.71878,2.93634 -4.8125,5.04688 a 0.50005,0.50005 0 0 0 0.44336,0.73632 0.50005,0.50005 0 0 0 0.44336,-0.27539 c 1.04259,-2.01189 2.66311,-3.65984 4.64062,-4.7539 1.34499,1.25248 3.1103,2.06338 5.07032,2.18164 l 0,-16.22852 c -2.37504,0.14325 -4.47145,1.29255 -5.86914,3.02735 -1.62155,-1.07764 -2.94678,-2.54436 -3.8418,-4.27149 a 0.50005,0.50005 0 0 0 -0.44336,-0.27734 z m 5.5957,5.50976 c 0.0169,-8.6e-4 0.0339,-8.6e-4 0.0508,0 l 3,0 c 0.67616,-0.01 0.67616,1.01 0,1 l -3,0 c -0.66669,0.0339 -0.71745,-0.9662 -0.0508,-1 z m 7.01367,0 c 0.0169,-8.6e-4 0.0339,-8.6e-4 0.0508,0 l 3,0 c 0.67616,-0.01 0.67616,1.01 0,1 l -3,0 c -0.66669,0.0339 -0.71745,-0.9662 -0.0508,-1 z m -6.01367,2 c 0.0169,-8.6e-4 0.0339,-8.6e-4 0.0508,0 l 2,0 c 0.67616,-0.01 0.67616,1.01 0,1 l -2,0 c -0.66669,0.0339 -0.71745,-0.9662 -0.0508,-1 z m 6.01367,0 c 0.0169,-8.6e-4 0.0339,-8.6e-4 0.0508,0 l 2,0 c 0.67616,-0.01 0.67616,1.01 0,1 l -2,0 c -0.66669,0.0339 -0.71745,-0.9662 -0.0508,-1 z m -5.01367,2 c 0.0169,-8.6e-4 0.0339,-8.6e-4 0.0508,0 l 1,0 c 0.67616,-0.01 0.67616,1.01 0,1 l -1,0 c -0.66669,0.0339 -0.71745,-0.9662 -0.0508,-1 z m 5.01367,0 c 0.0169,-8.6e-4 0.0339,-8.6e-4 0.0508,0 l 1,0 c 0.67616,-0.01 0.67616,1.01 0,1 l -1,0 c -0.66669,0.0339 -0.71745,-0.9662 -0.0508,-1 z" color="#000" font-family="sans-serif" font-weight="400" overflow="visible" class="colorfff svgShape"></path></g></svg></g></svg>