<svg id="SvgjsSvg1001" width="288" height="288" xmlns="http://www.w3.org/2000/svg" version="1.1" xmlns:xlink="http://www.w3.org/1999/xlink" xmlns:svgjs="http://svgjs.com/svgjs"><defs id="SvgjsDefs1002"></defs><g id="SvgjsG1008"><svg xmlns="http://www.w3.org/2000/svg" enable-background="new 0 0 64 64" viewBox="0 0 64 64" width="288" height="288"><circle cx="32" cy="32" r="32" fill="#364f6b" class="color181D33 svgShape"></circle><path fill="#f0f0f0" d="M51.61,13.38H12.39C11.62,13.38,11,14,11,14.76v26.57c0,1.22,1.61,1.39,3.2,1.39h12.14l-1.25,4.69h-2.17
	c-0.09,0-0.17,0.03-0.23,0.1c-0.07,0.06-0.1,0.14-0.09,0.23l0.06,2.57c0.01,0.17,0.14,0.31,0.32,0.31h18.12
	c0.09,0,0.17-0.04,0.24-0.1c0.06-0.07,0.09-0.15,0.09-0.24l-0.07-2.56c0-0.18-0.14-0.31-0.32-0.31h-2.11l-1.31-4.69H49.8
	c1.58,0,3.2-0.17,3.2-1.39V14.76C53,14,52.38,13.38,51.61,13.38z M30.41,39.34c0-0.88,0.72-1.59,1.59-1.59s1.6,0.72,1.6,1.59
	c0,0.88-0.72,1.6-1.6,1.6S30.41,40.22,30.41,39.34z M35.9,42.87l1.27,4.54H26.84l1.25-4.69h7.77L35.9,42.87z M50.06,16.21v19.86
	H13.94V16.21H50.06z" class="colorFFF svgShape"></path></svg></g></svg>