<svg xmlns="http://www.w3.org/2000/svg" width="32" height="32" viewBox="0 0 32 32"><g transform="translate(-442.987 -1413.42)"><path fill="#f7f7f7" d="m 449.48375,1417.9217 c 0,-1.105 -0.895,-2 -2,-2 -1.105,0 -2,0.895 -2,2 l 4,0 z" class="st10"/><path fill="#fff" d="m 447.4842,1415.9216 c -1.105,0 -2,0.895 -2,2 l 1.49805,0 c 0,-0.8396 0.51714,-1.5549 1.25,-1.8516 -0.23168,-0.094 -0.48265,-0.1484 -0.74805,-0.1484 z"/><path fill="#f7f7f7" d="m 469.40575,1438.9217 0,-20 c 0,-1.657 -1.343,-3 -3,-3 l -19,0 0.002,0 0,0 c 1.105,0 2,0.895 2,2 l 0,10e-4 -0.002,0 0,23 c 0,1.105 0.895,2 2,2 l 18,0 0,-4 z" class="st0"/><path fill="#fff" d="m 447.40803,1415.9216 c 1.105,0 2,0.895 2,2 l 0,0 -0.002,0 0,23 c 0,1.105 0.895,2 2,2 l 1.5,0 c -1.105,0 -2,-0.895 -2,-2 l 0,-23 0.002,0 0,-0 c 0,-1.105 -0.895,-2 -2,-2 l -1.5,0 z"/><path fill="#f7f7f7" d="m 472.48675,1441.0437 c 0,1.105 -0.895,2 -2,2 l -19,0 c 1.105,0 2,-0.895 2,-2 l 0,-1.997 19,0 0,1.997 z" class="st0"/><path fill="#fff" d="m 453.48616,1439.0466 0,1.998 c 0,1.105 -0.895,2 -2,2 l 1.49609,0 c 1.105,0 2,-0.895 2,-2 l 0,-1.998 -1.49609,0 z"/><path fill="#444a54" d="m 472.48675,1438.4217 -2.502,0 0,-19.503 c 0,-1.93 -1.57,-3.5 -3.5,-3.5 l -19,0 c -0.012,0 -0.021,0.01 -0.032,0.01 -1.362,0.019 -2.466,1.13 -2.466,2.497 0,0.276 0.224,0.5 0.5,0.5 l 3.498,0 0,22.497 c 0,1.379 1.122,2.5 2.5,2.5 l 19.002,0 c 1.262,0 2.298,-0.943 2.466,-2.161 0.02,-0.054 0.034,-0.11 0.034,-0.17 l 0,-2.166 c 0,-0.276 -0.224,-0.5 -0.5,-0.5 z m -3.502,-19.503 0,19.503 -15.498,0 c -0.276,0 -0.5,0.224 -0.5,0.5 l 0,1.997 c 0,0.827 -0.673,1.5 -1.5,1.5 -0.827,0 -1.5,-0.673 -1.5,-1.5 0,0 -0.002,0.992 -0.002,0.988 l 0,-23.973 c 0,0 0.002,-0.01 0.002,-0.012 0,-0.566 -0.196,-1.083 -0.515,-1.503 l 17.013,0 c 1.378,0 2.5,1.121 2.5,2.5 z m -22.913,-1.497 c 0.207,-0.582 0.763,-1 1.415,-1 0.652,0 1.208,0.418 1.415,1 l -2.83,0 z m 24.415,24.997 -10e-4,0 c 0,0 -10e-4,0 -10e-4,0 l -17.011,0 c 0.318,-0.419 0.513,-0.935 0.513,-1.5 l 0,-1.497 18,0 0,1.497 c 0,0.827 -0.673,1.5 -1.5,1.5 z" class="st21"/><line x1="455.487" x2="463.487" y1="1418.888" y2="1418.888" fill="none" stroke="#444a54" stroke-linecap="round" stroke-linejoin="round" stroke-miterlimit="10" class="st29"/><line x1="452.487" x2="466.487" y1="1421.888" y2="1421.888" fill="none" stroke="#444a54" stroke-linecap="round" stroke-linejoin="round" stroke-miterlimit="10" class="st29"/><line x1="452.487" x2="466.487" y1="1424.888" y2="1424.888" fill="none" stroke="#444a54" stroke-linecap="round" stroke-linejoin="round" stroke-miterlimit="10" class="st29"/><line x1="452.487" x2="466.487" y1="1427.888" y2="1427.888" fill="none" stroke="#444a54" stroke-linecap="round" stroke-linejoin="round" stroke-miterlimit="10" class="st29"/><line x1="452.487" x2="466.487" y1="1430.888" y2="1430.888" fill="none" stroke="#444a54" stroke-linecap="round" stroke-linejoin="round" stroke-miterlimit="10" class="st29"/><line x1="452.487" x2="466.487" y1="1433.888" y2="1433.888" fill="none" stroke="#444a54" stroke-linecap="round" stroke-linejoin="round" stroke-miterlimit="10" class="st29"/></g></svg>