<svg xmlns="http://www.w3.org/2000/svg" enable-background="new 0 0 70 70" viewBox="0 0 70 70"><path fill="#2B79C2" d="M10.2800293,18.7193489l2.539978,46.6300011c0.0800171,1.4899902,1.3099976,2.6499634,2.7999878,2.6499634
		h38.039978c1.4900513,0,2.7200317-1.1599731,2.8000488-2.6499634L59,18.7193489H10.2800293z M21.8499756,63.7093391H21.789978
		c-0.5700073,0-1.039978-0.4400024-1.0700073-1.0100098l-2.0699463-38.2999878
		c-0.0300293-0.5800171,0.4199829-1.0900269,1-1.1199951c0.5799561-0.0300293,1.0899658,0.4199829,1.1300049,1.0100098
		l2.0699463,38.289978C22.8800049,63.1693611,22.4299927,63.6693611,21.8499756,63.7093391z M35.710022,62.6393318
		c0,0.5900269-0.4800415,1.0700073-1.0700073,1.0700073c-0.5900269,0-1.0700073-0.4799805-1.0700073-1.0700073v-38.289978
		c0-0.5900269,0.4799805-1.0700073,1.0700073-1.0700073c0.5899658,0,1.0700073,0.4799805,1.0700073,1.0700073V62.6393318z
		 M48.5599976,62.6993294c-0.039978,0.5700073-0.5100098,1.0100098-1.0700073,1.0100098h-0.0599976
		c-0.5800171-0.039978-1.0299683-0.539978-1-1.1300049L48.5,24.2893562c0.0300293-0.5900269,0.539978-1.0400391,1.1199951-1.0100098
		c0.5900269,0.0299683,1.039978,0.539978,1.0100098,1.1199951L48.5599976,62.6993294z"/><path fill="#3B4652" d="M62.4499512,5.7451673c-0.0556717-0.4328971-0.4547501-0.7362375-0.8866043-0.6857672l-16.888588,2.1614294
		l-0.321682-2.5157599c-0.2164459-1.6941268-1.7742538-2.8960412-3.4657784-2.6790721L26.5335293,3.863209
		c-0.8210487,0.1051025-1.5515633,0.5234311-2.0573025,1.17746c-0.5062618,0.6545486-0.7268734,1.4672718-0.6217709,2.2877994
		l0.322073,2.5157604L7.8419409,11.9347658c-0.4334173,0.0556726-0.7409201,0.4537096-0.6857672,0.8871269l0.3938737,3.0781498
		c0.0561938,0.4328966,0.4521489,0.7403994,0.8866067,0.6857672l53.721405-6.8753662
		c0.4334183-0.0556726,0.740921-0.4537096,0.6857681-0.8871269L62.4499512,5.7451673z M25.9679527,7.0579076
		c-0.0327797-0.2559919,0.0364208-0.5093827,0.1940746-0.7133441c0.1576538-0.2044811,0.3860703-0.3350792,0.6420612-0.3678584
		l14.3537712-1.8372116c0.5359192-0.0645185,1.0140839,0.308023,1.0817223,0.8361368l0.3215523,2.5156946L26.2900238,9.5737324
		L25.9679527,7.0579076z"/></svg>