<svg xmlns="http://www.w3.org/2000/svg" width="32" height="32" viewBox="0 0 32 32"><g transform="matrix(1.88235 0 0 1.88235 732.15 -4689.977)"><circle cx="979.918" cy="471.148" r="6.5" fill="#f9f9f9" transform="matrix(-1.30769 0 0 1.30769 900.97 1883.942)"/><path fill="#78c8f0" fill-rule="evenodd" d="m -381.81521,2501.5873 -0.5625,1.75 -4.125,2.2812 c -0.0803,0.044 -0.17533,0.074 -0.25,0.125 1.55544,1.7205 3.81047,2.8125 6.3125,2.8125 2.68059,0 5.03585,-1.2489 6.59375,-3.1875 l -3.71875,-2.0312 -0.5625,-1.75 -3.6875,0 z"/><path fill="#f8b84e" d="m -382.19317,2501.2122 4.44342,0 0,3.3491 -2.22171,1.5005 -2.22171,-1.5005 z"/><path fill="#fcd062" d="m -381.28882,2494.5099 c -0.91188,0 -1.64598,0.7357 -1.64598,1.6497 l 0,1.2831 c 0,0.01 10e-4,0.013 10e-4,0.018 -3e-5,0.01 -10e-4,0.012 -10e-4,0.018 l 0,1.9791 c 0,1.6452 1.32196,2.9702 2.96334,2.9702 1.64137,0 2.96333,-1.325 2.96333,-2.9702 l 0,-1.9791 c 0,-0.01 -0.001,-0.012 -0.001,-0.018 7e-5,-0.01 0.001,-0.013 0.001,-0.018 l 0,-3.0014 c 0,-0.617 -0.1939,-0.6143 -0.67893,-0.2367 -0.24208,0.1883 -0.54652,0.3053 -0.96705,0.3053 l -1.31735,0 z"/><path fill="#34485c" fill-rule="evenodd" d="m -376.81618,2493.6811 c -0.12269,-0.033 -0.31445,0.074 -0.58714,0.2866 -0.27222,0.2117 -0.6136,0.3429 -1.08646,0.3429 l -1.48168,0 -1.48168,0 c -1.02537,0 -1.85088,0.8285 -1.85088,1.8563 10e-4,0.656 6e-5,1.2213 0,1.8745 0,0.3029 0.24241,0.2798 0.37446,0.2044 0.61696,-0.3741 1.63035,-1.3279 1.709,-1.6185 1.03116,1.7678 3.09796,0.7178 4.23738,1.5526 0.0915,0.091 0.34394,0.1136 0.34379,-0.1757 -3.8e-4,-1.1604 5e-4,-2.6069 5e-4,-3.7693 0,-0.3469 -0.0546,-0.5209 -0.17729,-0.5538 z"/><circle cx="-534.341" cy="1041.219" r=".5" fill="#34485c" transform="matrix(.74057 0 0 .73305 17.226 1744.312)"/><path fill="#4bbfeb" fill-rule="evenodd" d="m -380.97146,2506.056 0,2.4688 c 0.17556,0.011 0.35297,0.031 0.53125,0.031 0.51131,0 0.9823,-0.07 1.46875,-0.1563 l 0,-2.3437 -2,0 z"/><path fill="#27b2e7" fill-rule="evenodd" d="m -380.00002,2506.0503 2.97248,0.7331 0,-3.6653 -0.69492,-0.7559 c 0,0 -0.30243,1.489 -0.76912,2.222 -0.4667,0.7331 -1.50844,1.4661 -1.50844,1.4661 z"/><path fill="#27b2e7" fill-rule="evenodd" d="m -379.94419,2506.0503 -2.97455,0.7331 0,-2.1992 0,-1.4661 0.69699,-0.7559 c 0,0 0.30243,1.489 0.76913,2.222 0.46669,0.7331 1.50843,1.4661 1.50843,1.4661 z"/></g></svg>